<svg xmlns="http://www.w3.org/2000/svg" aria-labelledby="box" viewBox="0 0 648 222" width="243" height="74">
  <g fill="currentColor">
    <path fill="#F46D0C" d="M333.8 131.4l1 10.9h6l10.8-13.3-6.5-43.3h-20.2l-32.5 56.6h19.8l5.5-10.9h16.1zm-1.3-13.8h-8l7-14 1 14z"/>
    <path fill="#F46D0C" fill-rule="evenodd" d="M140.9 4.7l34.6 30.8 33.3 29.4a22.5 22.5 0 018 20.8l-9.4 45.5-9 43.5c-1.9 8.4-7.3 15-14 17.3l-44 14.6-42.1 14.1a24 24 0 01-7.6 1.3c1.7-9.8 3.7-21.6 4.4-23.6a222.9 222.9 0 0129.7-38c4.4-4.8 8.2-9.5 12.5-14.4 8.1-9.7 16.4-21 21.6-32.8 2-4.1 4.7-10 7.2-13.8 1-1.6 2.5-2.7 2.7-4.4-.9-.9-1.3-1-1.9-1.7 1.4-5.4 5.6-7.7 8.1-12 1.2-2.4 1.6-6.1 2.6-7.7 1.4-2 3.6-3.3 5.1-5.1 0-2.4-.3-1.6-1-2.9-1-1.7.2-1.4.3-3-.7-1.4-1.8-2.6-2.8-3.8-1.5-1.3-2.6-2-4.9-1.7-2.3.1-9.5 1.3-10.8 2.1-2.7 1.9-3.1 7.9-3.4 11.9-.3 5.4 2.4 5.7-1.4 11.5l-11.9 16.7c-1.2 1.7-11.6 11-14.4 13.2l-7 7.1c-6.6 6.9-6 5-13.9 14.1l-7.5 6.4c-5 4-11.6 7.9-18.4 8.7-2 .3-3.7.1-5.7.6-2.4.7-2.7 1.4-4.6 2.3-2.4 1-3 .4-5.4.8-2.1.3-3.8 1.3-6 .4-.5-3.1 1.6-9 2.6-11.8.9.3 2.9 3.2 6-4 .6-1.4 1-3.2.7-4.8-.7-2-1.7-1.7-2.8-3 0-4.4.2-9.7.5-14.1.3-2.6-1-6-2.4-8-2-2.7-.1-3.1-2.7-4.7-3.3-1.7-4.1-4-5.8-5.5-.6-.7-1.6-1-2.2-1.6-1.3-1.6.3-.6-1.8-2-1.7-1-3.4-2.1-5.6-1.8-1.7.1-1.7.5-2.5.8-1.2.4-1.9.3-3 .6-2.2.4-6.2 3.4-7 3.8-3.1 1.7-3.4-.4-6 5.2-1.7 2.8-4.7 7.4-5 11l-.7 6.6c.1 1.4-.1 6.7-.3 7.4l-2.3.4c-2.7 6.2.2 9.3 2 12.2 1.3 0 .7-.2.9-.2.7-.1.3-.3 1-.3 1.4 1.7 1 3.4 1.7 5.6.7 2.5 1.4 3.5 0 6.4-2.9 5.8-.4 5-10.5 4.1-4.3-.4-8.9-1-13.3-1C1 149-.9 142.2.3 136.4L9.7 91l9-43.7c1.8-8.4 7.2-15 14-17.3l44-14.6 42-14.1A23.3 23.3 0 01141 4.7z" clip-rule="evenodd"/>
    <path fill="#F46D0C" d="M275.3 112l-6.4 30.3h18l12-56.6h-17L262 106l-11.3-20.2h-15.4l-12 56.6h18.1l6.4-30.2 10.1 17.2 17.4-17.2zM382.7 124.5l5.8 17.8h19l-11.6-29.4 22-27.2h-20.6l-11.2 15.4-5-15.4h-19l10.5 27-24 29.6h20.5l13.6-17.8zM412.6 142.3h18l12-56.6h-18l-12 56.6zM491.5 112l-6.4 30.3h18.2l11.8-56.6h-17L478.3 106l-11.4-20.2h-15.3l-12 56.6h18.2L464 112l10.1 17.2 17.4-17.2zM541.2 127.7c-2 0-3.7-.7-5-2.1a7 7 0 01-1.9-7.1l7-32.8h-18l-7 32.8c-.3 1.5-.6 3.1-.6 5a19 19 0 006.5 14.6 25 25 0 0017.1 5.7c8 0 14.7-2.4 20-7a32.8 32.8 0 0010.2-18.3l7-32.8h-18.2l-7 32.8c-.6 2.5-1.9 4.8-3.7 6.5a9 9 0 01-6.4 2.7zM624.4 112l-6.4 30.3h18.2L648 85.7h-17L611.2 106l-11.4-20.2h-15.4l-12 56.6h18.2l6.4-30.2 10 17.2 17.5-17.2z"/>
    <path fill="#262625" d="M228.3 159.2c1.6 0 2.8.4 4 1.6 1 1 1.5 2.2 1.5 3.8 0 1.9-.7 3.6-2 4.9-1.5 1.4-3 2-4.8 2-1.6 0-3-.5-4-1.6-1-1-1.5-2.3-1.5-3.9 0-1.8.7-3.4 2.1-4.8a7 7 0 014.7-2zm-11 7.1c0 2.4.9 4.6 2.7 6.3 1.9 1.7 4 2.6 6.9 2.6 2 0 3.8-.5 5.5-1.5a11 11 0 005.7-9.4c0-2.4-.8-4.4-2.5-6a9.1 9.1 0 00-6.7-2.7c-3 0-5.7 1.2-8 3.3a9.7 9.7 0 00-3.6 7.4zm27.4 4.9l1-4.6h4c.5 0 1.1.2 1.5.6.5.4.6.8.6 1.4 0 .7-.3 1.3-.9 1.9-.5.5-1.2.8-2.1.8h-4.1v-.1zm3.7 3.5c2.1 0 3.8-.7 5.2-2a6 6 0 002.2-4.7c0-1.4-.4-2.5-1.6-3.5-1-1-2.3-1.6-4-1.6h-3.8l.7-3.3h9l.7-3.5h-13l-4 18.6h8.6zm14-18.6l-4 18.6h4l1.4-6.1h4.2c2.2 0 4-.7 5.6-2 1.4-1.3 2.3-3 2.3-5 0-1.4-.6-2.7-1.7-3.8a5.7 5.7 0 00-4.2-1.7h-7.5zm7 3.5c.6 0 1.2.3 1.6.7.4.5.7 1 .7 1.6 0 .9-.3 1.6-1 2.1-.5.6-1.4.9-2.2.9h-4l1.1-5.3h3.7zm19 7.3h-4.6l3.6-6.1 1 6zm.6 3.4l.7 4.4h4.1l-3.4-18.6H286L275 174.7h4.4l2.5-4.4h7.2zm19.6-5.3l.9-.2c1.8-.9 2.8-2.3 2.8-4.3 0-1.2-.5-2.3-1.8-3.3a6.7 6.7 0 00-4.6-1.4l-2.4.3c-.7.1-1.4.4-1.9.7l-1.2.8-.9.7-.3.3 1.9 2.6.5-.4c.3-.3.9-.6 1.6-.9.7-.3 1.4-.4 2-.4.9 0 1.4.1 2 .4.4.3.7.7.7 1.2 0 .7-.3 1-.8 1.7a4 4 0 01-2.5.7h-2.2l-.8 3.4h2.5c1 0 1.7.1 2.1.6.4.4.7.8.7 1.4 0 .7-.3 1.4-1 2-.7.5-1.7.8-2.8.8l-1.6-.1-1.3-.4a3 3 0 01-.8-.6l-.6-.4-.2-.2-2.8 2.3.3.3.8.8 1.5 1 2 .9c.8.3 1.7.3 2.5.3 2.6 0 4.6-.6 6-1.7a5.3 5.3 0 002.1-4.4l-.2-1.5a3 3 0 00-.8-1.1c-.1-.3-.4-.6-.7-.7-.3-.3-.5-.4-.7-.4.2-.8 0-.8 0-.8zm17.3-5.8c1.5 0 2.8.4 4 1.6 1 1 1.5 2.2 1.5 3.8 0 1.9-.7 3.6-2.1 4.9-1.5 1.4-3 2-4.9 2-1.5 0-3-.5-4-1.6-1-1-1.5-2.3-1.5-3.9a7 7 0 017-6.8zm-11.2 7.1c0 2.4.9 4.6 2.7 6.3 1.9 1.7 4 2.6 6.9 2.6 2 0 3.8-.5 5.5-1.5a11 11 0 005.7-9.4c0-2.4-.8-4.4-2.5-6a9.1 9.1 0 00-6.7-2.7c-3 0-5.7 1.2-8 3.3a9.7 9.7 0 00-3.6 7.4zm31.5 8.4c2.2 0 3.9-.5 5.3-1.8a5.3 5.3 0 002.1-4.3c0-.4-.1-.9-.3-1.3-.1-.4-.2-.7-.5-1l-.7-.7-.6-.4c-.2 0-.2-.2-.3-.2 2-1 3-2.5 3-4.4 0-1.1-.4-2.1-1.4-3.1-1-1-2.2-1.4-3.6-1.4h-7.8l-4 18.6h8.8zm-4.1-3.3l1-4.8h4.1c.7 0 1.2.2 1.6.6.4.4.7.8.7 1.4 0 .7-.3 1.4-.9 2-.5.6-1.2.8-2.1.8h-4.4zm6.3-12c.5 0 1 0 1.4.4.3.3.5.7.5 1.1 0 .7-.2 1.3-.7 1.7-.4.4-1 .7-1.8.7h-3.9l.9-4h3.6zm19.5 7.5h-4.7l3.5-6.1 1.2 6zm.5 3.4l.7 4.4h4.2l-3.4-18.6h-4.3l-11.3 18.6h4.4l2.6-4.4h7.1zm10-14.2l-.7 3.5h5.3l-3.3 15.1h4l3.1-15h5.3l.7-3.6h-14.4zm18.8 15l.9-4h7.5l.7-3.6h-7.5l.8-3.7h9.7l.7-3.6h-13.8l-4 18.7h14l.7-3.6h-9.7v-.1zm32.9-15h-13.5l-1.3 5.7c-.6 2.5-1.2 4.5-1.7 6a6.3 6.3 0 01-1.7 2.7 3 3 0 01-1.9.7l-1.3-.3-.8 3.8.3.2 1 .1c.4.2.8.2 1.2.2 1 0 1.9-.2 2.6-.6.7-.4 1.6-1 2.3-2 .7-1 1.4-2.3 2.1-4.1.7-1.9 1.3-4 1.9-6.7l.4-2.2h5.4l-3.1 15.1h4l4.1-18.6zm6 15l1.1-5.3h3.6c.7 0 1.3.2 1.7.7.4.4.7 1 .7 1.5 0 .9-.3 1.6-1 2.2-.7.5-1.4 1-2.3 1h-3.8zm3.5 3.6c2.2 0 4-.7 5.6-2 1.4-1.3 2.3-3 2.3-5.1 0-1.4-.6-2.7-1.7-3.8a5.6 5.6 0 00-4.2-1.6h-3.4l1.3-6.1h-4l-4 18.6h8.1zm30.2-18.6h-4l-1.5 7.4h-8l1.6-7.4h-4l-4 18.6h4l1.6-7.7h8l-1.6 7.7h4l4-18.6zm25.7 0h-4l-4 18.6h4l4-18.6zm-19.7 15l1.2-5.3h3.2c.7 0 1.3.2 1.7.7.5.4.8 1 .8 1.5 0 .9-.3 1.6-1 2.2-.8.5-1.5 1-2.3 1h-3.6zm3.3 3.6c2.1 0 4-.7 5.5-2s2.3-3 2.3-5.1c0-1.4-.5-2.7-1.7-3.8a5.6 5.6 0 00-4.1-1.6H478l1.2-6.1h-4l-4 18.6h7.9zm22.4-3.5l.8-4.2h7.6l.7-3.5H503l.9-3.7h9.7l.7-3.6h-13.8l-4 18.7h14l.6-3.6h-9.6v-.1zM230 188.5h-16l-4 18.7h4l3.3-15.1h7.9l-3.2 15h4l4-18.6zm4.7 0l-4 18.7h4l1.3-6.1h4.3c2 0 4-.7 5.5-2 1.4-1.3 2.3-3 2.3-5 0-1.4-.6-2.7-1.7-3.9a5.7 5.7 0 00-4.1-1.7h-7.6zm6.8 3.6c.8 0 1.3.3 1.7.7.5.4.8 1 .8 1.6 0 .8-.3 1.5-1 2.1-.6.6-1.5.9-2.3.9h-4l1.1-5.4h3.7v.1zm19.6-.4c1.5 0 2.8.4 4 1.5 1 1 1.5 2.3 1.5 3.9 0 1.8-.7 3.5-2.1 4.8-1.5 1.4-3 2-4.7 2-1.6 0-3-.4-4-1.6-1-1-1.6-2.2-1.6-3.8 0-1.8.7-3.4 2.2-4.8 1.2-1.3 2.8-2 4.7-2zm-11.2 7c0 2.5.9 4.6 2.7 6.4 1.9 1.7 4 2.5 6.9 2.5a11 11 0 0011.3-10.7c0-2.4-1-4.4-2.6-6a9.1 9.1 0 00-6.7-2.6c-3 0-5.7 1-8 3.2a10 10 0 00-3.6 7.3zm22.1 8.5h4l3.3-15.1h8.7l.7-3.6H276l-4 18.7zm19.8-18.7l-4 18.7h4l1.3-6.1h4.3c2.1 0 4-.7 5.5-2 1.4-1.3 2.3-3 2.3-5 0-1.4-.6-2.7-1.7-3.9a5.7 5.7 0 00-4.1-1.7h-7.6zm6.8 3.6c.8 0 1.3.3 1.8.7.4.4.7 1 .7 1.6 0 .8-.3 1.5-1 2.1-.6.6-1.5.9-2.3.9h-4l1.1-5.4h3.8v.1zm18 7.3H312l3.6-6.2 1 6.2zm.7 3.4l.7 4.4h4.1l-3.4-18.7h-4.2L303 207.2h4.4l2.5-4.4h7.3zm19.5-6.1l-4.7-8.2h-3.4l-4 18.7h4l2.6-12.4 4.4 7.5 7.7-7.5-2.7 12.4h4l4-18.7h-4l-7.9 8.2zm24.5 0l-4.7-8.2h-3.4l-4 18.7h4l2.6-12.4 4.4 7.5 7.7-7.5-2.7 12.4h4l4-18.7h-4l-7.9 8.2zm37-8.2h-4l-4 18.7h4l4-18.7zm-19.6 15.1l1.1-5.4h3.4c.8 0 1.3.3 1.8.7.4.5.7 1 .7 1.6 0 .9-.3 1.6-1 2.1-.7.6-1.5.9-2.3.9h-3.7v.1zm3.3 3.6a8 8 0 005.4-2c1.4-1.3 2.3-3 2.3-5.1 0-1.5-.6-2.7-1.8-3.9a5.8 5.8 0 00-4.2-1.7h-3.2l1.3-6.1h-4l-4 18.6h8.2v.2zm37.8 0l4-18.7h-3.7l-11.5 11.9 2.6-11.9h-4l-4 18.7h3.7l11.4-11.8-2.6 11.8h4.1zm11.6-18.7l-.7 3.6h5.4l-3.3 15h4l3.1-15h5.4l.8-3.6h-14.7zm18.5 15.1l.9-4.1h7.5l.9-3.6h-7.6l.9-3.7h9.6l.8-3.5H449l-4 18.6h14l.7-3.5H450v-.2zm21.8-3.2l3.1 6.8h4.3l-4.4-9.7 7.8-9h-4.8l-5.3 6-2.7-6h-4.3l4.2 9-8.6 9.7h4.7l6-6.8zm30.6-11.9h-4l-1.5 7.6h-8l1.5-7.6h-4l-4 18.7h4l1.6-7.6h8l-1.6 7.6h4l4-18.7zm12.4 3.2c1.6 0 2.8.4 4 1.5 1 1 1.6 2.3 1.6 3.9 0 1.8-.8 3.5-2.2 4.8-1.4 1.4-3 2-4.8 2-1.6 0-3-.4-4-1.6-1-1-1.6-2.2-1.6-3.8 0-1.8.7-3.4 2.2-4.8 1.5-1.3 3-2 4.8-2zm-11 7c0 2.5.9 4.6 2.6 6.4 1.8 1.7 4 2.5 6.8 2.5a11 11 0 0011.3-10.7c0-2.4-.9-4.4-2.6-6a9.1 9.1 0 00-6.7-2.6c-3 0-5.5 1-7.8 3.2a9.2 9.2 0 00-3.6 7.3zm42.2-10.2h-13.5l-1.3 5.7c-.6 2.6-1.2 4.6-1.7 6a6.3 6.3 0 01-1.7 2.7 3 3 0 01-1.9.7l-1.3-.3-.8 3.9.3.1 1 .2 1.2.1c1 0 1.9-.1 2.6-.6.7-.4 1.6-1 2.3-2 .7-1 1.4-2.2 2.1-4 .7-2 1.3-4 1.9-6.8l.4-2.1h5.4l-3.1 15h4l4-18.6zm12.5 3.2a5.3 5.3 0 015.6 5.4c0 1.8-.7 3.5-2.2 4.8-1.4 1.4-3 2-4.8 2-1.6 0-2.9-.4-4-1.6-1-1-1.6-2.2-1.6-3.8 0-1.8.8-3.4 2.2-4.8a7 7 0 014.8-2zm-11 7c0 2.5.8 4.6 2.6 6.4 1.7 1.7 4 2.5 6.9 2.5a11 11 0 0011.3-10.7c-.1-2.4-1-4.4-2.7-6a9.1 9.1 0 00-6.7-2.6c-3 0-5.5 1-7.8 3.2s-3.7 4.6-3.7 7.3zm21.6 8.5h4l3.2-15.1h8.7l.7-3.6H573l-4 18.7zm32.3 0l4-18.7h-3.7L590 200.4l2.6-11.9h-4l-4 18.7h3.7l11.4-11.8-2.5 11.8h4zm21 0l4-18.7h-3.6L611 200.4l2.6-11.9h-4l-4 18.7h3.7l11.4-11.8-2.6 11.8h4.2z"/>
  </g>
</svg>