<svg xmlns="http://www.w3.org/2000/svg" viewBox="0 0 480 480">
  <path fill="#78b9eb" d="M408 480H72a16 16 0 01-16-16V16A16 16 0 0172 0h264l88 88v376a16 16 0 01-16 16z"/>
  <path fill="#679fc9" d="M336 0v72a16 16 0 0016 16h72L336 0z"/>
  <g fill="#ffda44">
    <path d="M72 176h80a8 8 0 018 8v32a8 8 0 01-8 8H72a8 8 0 01-8-8v-32a8 8 0 018-8zM72 304h80a8 8 0 018 8v32a8 8 0 01-8 8H72a8 8 0 01-8-8v-32a8 8 0 018-8zM72 240h80a8 8 0 018 8v32a8 8 0 01-8 8H72a8 8 0 01-8-8v-32a8 8 0 018-8z"/>
  </g>
  <path fill="#ffeb99" d="M352 248v56h56c0-31-25-56-56-56z"/>
  <path fill="#fbb040" d="M352 248a56 56 0 1056 56h-56v-56z"/>
  <g fill="#fff">
    <path d="M104 48h16v16h-16V48zM136 48h160v16H136V48zM104 80h192v16H104V80zM192 176h32v16h-32v-16zM240 176h64v16h-64v-16zM192 208h112v16H192v-16zM192 240h16v16h-16v-16zM224 240h80v16h-80v-16zM192 272h64v16h-64v-16zM192 304h80v16h-80v-16zM192 336h16v16h-16v-16zM224 336h48v16h-48v-16zM384 224h32v16h-32v-16zM384 192h32v16h-32v-16zM384 360h32v16h-32v-16z"/>
  </g>
</svg>