<svg xmlns="http://www.w3.org/2000/svg" viewBox="0 0 48 48" width="300" height="300">
  <path fill="#FF5722" d="M32.6 21.8L44 3.8 28 14.4l3.8-7S13 17.6 7.6 23.2c-4.8 4.8-4.8 12.4 0 17.2s12.4 4.8 17.2 0c5.6-5.6 14-20.8 14-20.8l-6.2 2.2z"/>
  <path fill="#FF9800" d="M26.7 26.2L33 15.1l-11.4 7.1 1.8-5.6s-9 5.7-13 9.6C8.9 27.7 8 29.7 8 32c0 4.5 3.5 8 8 8 2.3 0 4.3-1 5.8-2.4 3-3 10.9-13.1 10.9-13.1l-6 1.7z"/>
  <path fill="#FFC107" d="M16 27c-2.8 0-5 2.2-5 5s2.2 5 5 5 5-2.2 5-5-2.2-5-5-5z"/>
  <path fill="#FFF9C4" d="M16 29.5c-1.4 0-2.5 1.1-2.5 2.5s1.1 2.5 2.5 2.5 2.5-1.1 2.5-2.5-1.1-2.5-2.5-2.5z"/>
</svg>